<?xml version="1.0" standalone="no"?>
<!DOCTYPE svg PUBLIC "-//W3C//DTD SVG 20010904//EN"
 "http://www.w3.org/TR/2001/REC-SVG-20010904/DTD/svg10.dtd">
<svg version="1.0" xmlns="http://www.w3.org/2000/svg"
 width="750.000000pt" height="750.000000pt" viewBox="0 0 750.000000 750.000000"
 preserveAspectRatio="xMidYMid meet">

<g transform="translate(0.000000,750.000000) scale(0.100000,-0.100000)"
fill="#000000" stroke="none">
<path d="M2500 3977 l0 -877 115 0 115 0 2 550 3 550 330 -429 c182 -236 333
-427 336 -425 4 2 154 196 335 431 l329 428 3 -553 2 -552 110 0 110 0 0 875
c0 481 -2 875 -4 875 -1 0 -200 -256 -441 -570 -241 -313 -442 -570 -446 -570
-4 0 -201 251 -439 558 -238 306 -439 564 -446 572 -12 12 -14 -121 -14 -863z"/>
<path d="M4510 3975 l0 -875 115 0 115 0 2 551 3 551 215 -278 c118 -154 268
-348 333 -432 l118 -152 332 431 332 431 3 -551 2 -551 110 0 110 0 0 878 c-1
691 -3 874 -13 861 -7 -8 -205 -266 -441 -572 -235 -306 -431 -557 -435 -557
-4 0 -207 257 -450 570 -243 314 -444 570 -447 570 -2 0 -4 -394 -4 -875z"/>
<path d="M1200 3965 l0 -865 550 0 550 0 0 110 0 110 -440 0 -440 0 0 755 0
755 -110 0 -110 0 0 -865z"/>
</g>
</svg>
