<?xml version="1.0" standalone="no"?>
<!DOCTYPE svg PUBLIC "-//W3C//DTD SVG 20010904//EN"
 "http://www.w3.org/TR/2001/REC-SVG-20010904/DTD/svg10.dtd">
<svg version="1.0" xmlns="http://www.w3.org/2000/svg"
 width="500.000000pt" height="500.000000pt" viewBox="0 0 500.000000 500.000000"
 preserveAspectRatio="xMidYMid meet">

<g transform="translate(0.000000,500.000000) scale(0.100000,-0.100000)"
fill="#000000" stroke="none">
<path d="M1670 2652 l0 -582 75 0 75 0 2 366 3 366 214 -278 c118 -154 217
-282 220 -286 4 -4 105 121 226 279 l220 286 3 -367 2 -366 75 0 75 0 0 582
c0 575 0 582 -19 563 -11 -11 -144 -182 -296 -380 -152 -198 -278 -360 -280
-360 -2 0 -132 167 -290 370 -157 204 -291 374 -296 380 -5 5 -9 -215 -9 -573z"/>
<path d="M3010 2650 l0 -580 75 0 75 0 2 368 3 367 221 -287 222 -287 218 284
219 284 3 -364 2 -365 75 0 75 0 0 582 c0 504 -2 580 -14 568 -8 -8 -139 -177
-291 -375 -152 -198 -280 -361 -285 -363 -4 -2 -139 166 -300 373 -160 206
-293 375 -296 375 -2 0 -4 -261 -4 -580z"/>
<path d="M800 2645 l0 -575 370 0 371 0 -3 73 -3 72 -292 3 -293 2 0 500 0
500 -75 0 -75 0 0 -575z"/>
<path d="M2520 1836 c0 -56 0 -56 30 -56 31 0 70 30 70 53 0 26 -26 48 -63 54
l-37 6 0 -57z m68 -5 c-2 -18 -10 -27 -25 -29 -19 -3 -23 1 -23 26 0 35 5 41
31 35 15 -4 19 -13 17 -32z"/>
<path d="M2677 1883 c-4 -3 -7 -28 -7 -55 l0 -48 35 0 c19 0 35 5 35 10 0 6
-9 10 -20 10 -27 0 -25 16 3 25 l22 8 -22 4 c-28 5 -30 33 -3 33 11 0 20 5 20
10 0 11 -53 14 -63 3z"/>
<path d="M2800 1878 c0 -25 33 -98 44 -98 10 0 46 80 46 103 0 21 -20 2 -31
-30 l-12 -37 -19 37 c-19 38 -28 46 -28 25z"/>
<path d="M2950 1835 l0 -55 35 0 c19 0 35 5 35 10 0 6 -11 10 -25 10 -14 0
-25 5 -25 10 0 6 9 10 20 10 11 0 20 5 20 10 0 6 -9 10 -20 10 -11 0 -20 7
-20 15 0 9 10 15 26 15 14 0 23 4 19 10 -3 6 -19 10 -36 10 -29 0 -29 -1 -29
-55z"/>
<path d="M3080 1835 l0 -55 35 0 c19 0 35 5 35 10 0 6 -11 10 -25 10 -23 0
-25 4 -25 45 0 25 -4 45 -10 45 -5 0 -10 -25 -10 -55z"/>
<path d="M3222 1874 c-41 -28 -19 -94 32 -94 26 0 56 29 56 53 0 20 -34 57
-53 57 -7 0 -23 -7 -35 -16z m52 -20 c20 -19 20 -28 1 -44 -30 -25 -70 15 -45
45 16 19 25 19 44 -1z"/>
<path d="M3370 1835 c0 -30 5 -55 10 -55 6 0 10 7 10 15 0 8 8 15 19 15 45 0
52 62 8 74 -44 12 -47 8 -47 -49z m49 22 c12 -15 5 -27 -16 -27 -7 0 -13 9
-13 20 0 23 13 26 29 7z"/>
<path d="M3510 1838 c0 -32 4 -58 10 -58 6 0 10 15 10 33 1 26 2 29 11 15 5
-10 15 -18 21 -18 6 0 17 8 24 18 12 15 13 14 14 -15 0 -18 5 -33 10 -33 6 0
10 25 10 55 0 62 -11 69 -36 25 l-18 -29 -28 32 -27 32 -1 -57z"/>
<path d="M3687 1883 c-4 -3 -7 -28 -7 -55 l0 -48 35 0 c19 0 35 5 35 10 0 6
-9 10 -20 10 -27 0 -25 16 3 25 l22 8 -22 4 c-28 5 -30 33 -3 33 11 0 20 5 20
10 0 11 -53 14 -63 3z"/>
<path d="M3817 1884 c-4 -4 -7 -29 -7 -56 0 -36 4 -48 15 -48 10 0 15 10 15
33 l0 32 21 -32 c12 -18 25 -33 30 -33 5 0 9 25 9 55 0 30 -4 55 -10 55 -5 0
-10 -14 -10 -32 l0 -32 -28 33 c-15 18 -30 29 -35 25z"/>
<path d="M3960 1875 c0 -8 7 -15 15 -15 11 0 15 -11 15 -40 0 -29 4 -40 15
-40 11 0 15 11 15 40 0 29 4 40 15 40 8 0 15 7 15 15 0 11 -12 15 -45 15 -33
0 -45 -4 -45 -15z"/>
<path d="M4112 1878 c-20 -20 -13 -39 18 -49 41 -15 39 -33 -2 -23 -30 6 -31
5 -19 -10 21 -25 65 -17 69 12 3 18 -3 25 -28 34 -22 7 -28 14 -21 21 7 7 15
6 26 -3 20 -17 32 -5 15 15 -15 18 -41 20 -58 3z"/>
<path d="M780 1830 l0 -50 815 0 815 0 0 50 0 50 -815 0 -815 0 0 -50z"/>
</g>
</svg>
