<svg xmlns="http://www.w3.org/2000/svg" xmlns:xlink="http://www.w3.org/1999/xlink" width="500" zoomAndPan="magnify" viewBox="0 0 375 374.999991" height="500" preserveAspectRatio="xMidYMid meet" version="1.0"><defs><g/><clipPath id="52d1194804"><path d="M 58.5 233.96875 L 180.808594 233.96875 L 180.808594 241.824219 L 58.5 241.824219 Z M 58.5 233.96875 " clip-rule="nonzero"/></clipPath></defs><g fill="#2e2e2e" fill-opacity="1"><g transform="translate(48.58554, 220.069982)"><g><path d="M 11.3125 -86.609375 L 22.625 -86.609375 L 22.625 -11.046875 L 66.65625 -11.046875 L 66.65625 0 L 11.3125 0 Z M 11.3125 -86.609375 "/></g></g></g><g fill="#2e2e2e" fill-opacity="1"><g transform="translate(113.647072, 220.069982)"><g><path d="M 89.671875 -55.34375 L 56.28125 -11.96875 L 22.75 -55.484375 L 22.75 0 L 11.4375 0 L 11.4375 -87.9375 L 56.28125 -30.203125 L 100.71875 -87.9375 L 100.71875 0 L 89.671875 0 Z M 89.671875 -55.34375 "/></g></g></g><g fill="#2e2e2e" fill-opacity="1"><g transform="translate(214.233276, 220.069982)"><g><path d="M 89.671875 -55.34375 L 56.28125 -11.96875 L 22.75 -55.484375 L 22.75 0 L 11.4375 0 L 11.4375 -87.9375 L 56.28125 -30.203125 L 100.71875 -87.9375 L 100.71875 0 L 89.671875 0 Z M 89.671875 -55.34375 "/></g></g></g><g clip-path="url(#52d1194804)"><path fill="#2e2e2e" d="M 58.5 233.96875 L 180.816406 233.96875 L 180.816406 241.824219 L 58.5 241.824219 Z M 58.5 233.96875 " fill-opacity="1" fill-rule="nonzero"/></g><g fill="#2e2e2e" fill-opacity="1"><g transform="translate(187.96555, 241.227061)"><g><path d="M 0.953125 0 L 0.953125 -8 L 4.125 -8 C 4.96875 -8 5.703125 -7.828125 6.328125 -7.484375 C 6.960938 -7.148438 7.457031 -6.679688 7.8125 -6.078125 C 8.164062 -5.484375 8.34375 -4.789062 8.34375 -4 C 8.34375 -3.195312 8.164062 -2.492188 7.8125 -1.890625 C 7.457031 -1.296875 6.960938 -0.832031 6.328125 -0.5 C 5.703125 -0.164062 4.96875 0 4.125 0 Z M 2.78125 -1.671875 L 4.09375 -1.671875 C 4.5625 -1.671875 4.972656 -1.765625 5.328125 -1.953125 C 5.691406 -2.148438 5.972656 -2.421875 6.171875 -2.765625 C 6.367188 -3.117188 6.46875 -3.53125 6.46875 -4 C 6.46875 -4.46875 6.367188 -4.875 6.171875 -5.21875 C 5.972656 -5.570312 5.691406 -5.84375 5.328125 -6.03125 C 4.960938 -6.226562 4.539062 -6.328125 4.0625 -6.328125 L 2.78125 -6.328125 Z M 2.78125 -1.671875 "/></g></g></g><g fill="#2e2e2e" fill-opacity="1"><g transform="translate(199.555596, 241.227061)"><g><path d="M 0.953125 0 L 0.953125 -8 L 6.21875 -8 L 6.21875 -6.46875 L 2.765625 -6.46875 L 2.765625 -4.8125 L 5.90625 -4.8125 L 5.90625 -3.296875 L 2.765625 -3.296875 L 2.765625 -1.546875 L 6.34375 -1.546875 L 6.34375 0 Z M 0.953125 0 "/></g></g></g><g fill="#2e2e2e" fill-opacity="1"><g transform="translate(209.250119, 241.227061)"><g><path d="M 3.171875 0 L 0.109375 -8 L 2.0625 -8 L 3.125 -5.15625 L 4.078125 -2.609375 L 6.09375 -8 L 8.03125 -8 L 4.953125 0 Z M 3.171875 0 "/></g></g></g><g fill="#2e2e2e" fill-opacity="1"><g transform="translate(220.155042, 241.227061)"><g><path d="M 0.953125 0 L 0.953125 -8 L 6.21875 -8 L 6.21875 -6.46875 L 2.765625 -6.46875 L 2.765625 -4.8125 L 5.90625 -4.8125 L 5.90625 -3.296875 L 2.765625 -3.296875 L 2.765625 -1.546875 L 6.34375 -1.546875 L 6.34375 0 Z M 0.953125 0 "/></g></g></g><g fill="#2e2e2e" fill-opacity="1"><g transform="translate(229.849565, 241.227061)"><g><path d="M 0.953125 0 L 0.953125 -8 L 2.78125 -8 L 2.78125 -1.703125 L 6.265625 -1.703125 L 6.265625 0 Z M 0.953125 0 "/></g></g></g><g fill="#2e2e2e" fill-opacity="1"><g transform="translate(239.201526, 241.227061)"><g><path d="M 4.75 0.15625 C 3.914062 0.15625 3.175781 -0.0195312 2.53125 -0.375 C 1.894531 -0.726562 1.394531 -1.21875 1.03125 -1.84375 C 0.664062 -2.46875 0.484375 -3.1875 0.484375 -4 C 0.484375 -4.8125 0.664062 -5.53125 1.03125 -6.15625 C 1.394531 -6.78125 1.894531 -7.269531 2.53125 -7.625 C 3.175781 -7.976562 3.914062 -8.15625 4.75 -8.15625 C 5.59375 -8.15625 6.332031 -7.976562 6.96875 -7.625 C 7.601562 -7.269531 8.101562 -6.78125 8.46875 -6.15625 C 8.832031 -5.53125 9.015625 -4.8125 9.015625 -4 C 9.015625 -3.1875 8.832031 -2.46875 8.46875 -1.84375 C 8.101562 -1.21875 7.601562 -0.726562 6.96875 -0.375 C 6.332031 -0.0195312 5.59375 0.15625 4.75 0.15625 Z M 2.34375 -4 C 2.34375 -3.519531 2.441406 -3.097656 2.640625 -2.734375 C 2.847656 -2.367188 3.132812 -2.082031 3.5 -1.875 C 3.863281 -1.664062 4.28125 -1.5625 4.75 -1.5625 C 5.226562 -1.5625 5.648438 -1.664062 6.015625 -1.875 C 6.378906 -2.082031 6.660156 -2.367188 6.859375 -2.734375 C 7.054688 -3.097656 7.15625 -3.519531 7.15625 -4 C 7.15625 -4.476562 7.054688 -4.898438 6.859375 -5.265625 C 6.660156 -5.628906 6.378906 -5.914062 6.015625 -6.125 C 5.648438 -6.332031 5.226562 -6.4375 4.75 -6.4375 C 4.28125 -6.4375 3.863281 -6.332031 3.5 -6.125 C 3.132812 -5.914062 2.847656 -5.628906 2.640625 -5.265625 C 2.441406 -4.898438 2.34375 -4.476562 2.34375 -4 Z M 2.34375 -4 "/></g></g></g><g fill="#2e2e2e" fill-opacity="1"><g transform="translate(251.488108, 241.227061)"><g><path d="M 0.953125 0 L 0.953125 -8 L 4.09375 -8 C 4.738281 -8 5.296875 -7.878906 5.765625 -7.640625 C 6.234375 -7.398438 6.597656 -7.0625 6.859375 -6.625 C 7.128906 -6.195312 7.265625 -5.691406 7.265625 -5.109375 C 7.265625 -4.523438 7.128906 -4.015625 6.859375 -3.578125 C 6.597656 -3.148438 6.234375 -2.816406 5.765625 -2.578125 C 5.296875 -2.347656 4.738281 -2.234375 4.09375 -2.234375 L 2.78125 -2.234375 L 2.78125 0 Z M 2.765625 -3.796875 L 3.9375 -3.796875 C 4.414062 -3.796875 4.78125 -3.90625 5.03125 -4.125 C 5.28125 -4.351562 5.40625 -4.675781 5.40625 -5.09375 C 5.40625 -5.507812 5.28125 -5.832031 5.03125 -6.0625 C 4.78125 -6.289062 4.414062 -6.40625 3.9375 -6.40625 L 2.765625 -6.40625 Z M 2.765625 -3.796875 "/></g></g></g><g fill="#2e2e2e" fill-opacity="1"><g transform="translate(261.856342, 241.227061)"><g><path d="M 0.953125 0 L 0.953125 -8 L 2.5 -8 L 5.34375 -3.84375 L 8.171875 -8 L 9.703125 -8 L 9.703125 0 L 7.90625 0 L 7.90625 -4.8125 L 5.96875 -1.96875 L 4.703125 -1.96875 L 2.765625 -4.8125 L 2.765625 0 Z M 0.953125 0 "/></g></g></g><g fill="#2e2e2e" fill-opacity="1"><g transform="translate(275.296232, 241.227061)"><g><path d="M 0.953125 0 L 0.953125 -8 L 6.21875 -8 L 6.21875 -6.46875 L 2.765625 -6.46875 L 2.765625 -4.8125 L 5.90625 -4.8125 L 5.90625 -3.296875 L 2.765625 -3.296875 L 2.765625 -1.546875 L 6.34375 -1.546875 L 6.34375 0 Z M 0.953125 0 "/></g></g></g><g fill="#2e2e2e" fill-opacity="1"><g transform="translate(284.990755, 241.227061)"><g><path d="M 0.953125 0 L 0.953125 -8 L 2.5 -8 L 6.03125 -3.125 L 6.03125 -8 L 7.828125 -8 L 7.828125 0 L 6.296875 0 L 2.765625 -4.90625 L 2.765625 0 Z M 0.953125 0 "/></g></g></g><g fill="#2e2e2e" fill-opacity="1"><g transform="translate(296.557961, 241.227061)"><g><path d="M 2.875 0 L 2.875 -6.296875 L 0.34375 -6.296875 L 0.34375 -8 L 7.234375 -8 L 7.234375 -6.296875 L 4.6875 -6.296875 L 4.6875 0 Z M 2.875 0 "/></g></g></g><g fill="#2e2e2e" fill-opacity="1"><g transform="translate(306.903356, 241.227061)"><g><path d="M 3.75 0.15625 C 3.070312 0.15625 2.492188 0.046875 2.015625 -0.171875 C 1.535156 -0.390625 1.160156 -0.703125 0.890625 -1.109375 C 0.628906 -1.515625 0.5 -1.992188 0.5 -2.546875 L 2.28125 -2.546875 C 2.28125 -2.160156 2.410156 -1.863281 2.671875 -1.65625 C 2.941406 -1.445312 3.296875 -1.34375 3.734375 -1.34375 C 4.117188 -1.34375 4.421875 -1.414062 4.640625 -1.5625 C 4.859375 -1.707031 4.96875 -1.914062 4.96875 -2.1875 C 4.96875 -2.46875 4.832031 -2.691406 4.5625 -2.859375 C 4.300781 -3.035156 3.890625 -3.1875 3.328125 -3.3125 C 2.390625 -3.507812 1.695312 -3.804688 1.25 -4.203125 C 0.800781 -4.609375 0.578125 -5.140625 0.578125 -5.796875 C 0.578125 -6.523438 0.84375 -7.097656 1.375 -7.515625 C 1.90625 -7.941406 2.628906 -8.15625 3.546875 -8.15625 C 4.179688 -8.15625 4.726562 -8.046875 5.1875 -7.828125 C 5.65625 -7.609375 6.015625 -7.300781 6.265625 -6.90625 C 6.523438 -6.519531 6.65625 -6.054688 6.65625 -5.515625 L 4.90625 -5.515625 C 4.90625 -5.867188 4.785156 -6.148438 4.546875 -6.359375 C 4.316406 -6.566406 3.992188 -6.671875 3.578125 -6.671875 C 3.191406 -6.671875 2.890625 -6.59375 2.671875 -6.4375 C 2.453125 -6.289062 2.34375 -6.085938 2.34375 -5.828125 C 2.34375 -5.578125 2.460938 -5.367188 2.703125 -5.203125 C 2.953125 -5.035156 3.378906 -4.878906 3.984375 -4.734375 C 4.984375 -4.503906 5.703125 -4.191406 6.140625 -3.796875 C 6.585938 -3.398438 6.8125 -2.882812 6.8125 -2.25 C 6.8125 -1.5 6.535156 -0.910156 5.984375 -0.484375 C 5.441406 -0.0546875 4.695312 0.15625 3.75 0.15625 Z M 3.75 0.15625 "/></g></g></g></svg>