<?xml version="1.0" standalone="no"?>
<!DOCTYPE svg PUBLIC "-//W3C//DTD SVG 20010904//EN"
 "http://www.w3.org/TR/2001/REC-SVG-20010904/DTD/svg10.dtd">
<svg version="1.0" xmlns="http://www.w3.org/2000/svg"
 width="1280.000000pt" height="1280.000000pt" viewBox="0 0 1280.000000 1280.000000"
 preserveAspectRatio="xMidYMid meet">
<metadata>
Created by potrace 1.11, written by Peter Selinger 2001-2013
</metadata>
<g transform="translate(0.000000,1280.000000) scale(0.100000,-0.100000)"
fill="#000000" stroke="none">
<path d="M4780 12784 c-627 -62 -1198 -294 -1695 -690 -141 -112 -376 -347
-489 -489 -1095 -1369 -894 -3348 454 -4469 528 -440 1202 -700 1893 -732
l147 -7 0 3201 0 3202 -87 -1 c-49 -1 -149 -7 -223 -15z"/>
<path d="M8960 11205 c877 -877 1596 -1595 1597 -1595 2 0 3 718 3 1595 l0
1595 -1597 0 -1598 0 1595 -1595z"/>
<path d="M7710 3200 l0 -3203 137 7 c465 23 878 131 1293 337 493 245 920 620
1227 1079 238 356 394 733 483 1164 75 369 75 863 0 1232 -94 459 -272 871
-533 1239 -571 802 -1480 1297 -2464 1342 l-143 6 0 -3203z"/>
<path d="M2240 1595 l0 -1595 1597 0 1598 0 -1595 1595 c-877 877 -1596 1595
-1597 1595 -2 0 -3 -718 -3 -1595z"/>
</g>
</svg>
